<svg xmlns="http://www.w3.org/2000/svg" version="1.1" xmlns:xlink="http://www.w3.org/1999/xlink" xmlns:svgjs="http://svgjs.dev/svgjs" width="864" height="864"><svg id="SvgjsSvg1008" data-name="Layer 1" xmlns="http://www.w3.org/2000/svg" viewBox="0 0 864 864">
  <defs>
    <style>
      .cls-1 {
        fill: #fe3d14;
      }
    </style>
  </defs>
  <path class="cls-1" d="M759.34,426.42c-.04-11.73-134.4-87.97-136.23-100.84-1.83-12.87,197.76-183.24,186.28-196.67-11.48-13.43-266.89,137.55-282.51,136.31-15.62-1.24-175.57-148.76-193.45-141.64-17.88,7.12-25.4,241.73-36.06,258.71-10.65,16.98-229.71,98.68-223.76,117.11,5.95,18.43,180.2-7.45,189.68,6.87,9.48,14.32-128,220.26-114.04,230.44,13.96,10.18,272.41-178.91,272.41-178.91,0,0-83.26-12.96-89.52-28.12,22.43-97.58,108.68-128.76,122.32-133.59,13.64-4.83,112.03-41.23,172.24,38.04-8.7,22.29-72.99,85.13-72.99,85.13,0,0,205.66-81.12,205.62-92.85ZM425.39,322.42c-8.12,4-22,10.57-37.69,17.94,11.39-25.46,22.74-44.49,32.12-49.04,8-3.88,24.15.72,44.06,10.31-14.86,8.37-29.09,16.17-38.49,20.79Z"></path>
</svg><style>@media (prefers-color-scheme: light) { :root { filter: none; } }
@media (prefers-color-scheme: dark) { :root { filter: none; } }
</style></svg>